<?xml version="1.0" standalone="no"?>
<!DOCTYPE svg PUBLIC "-//W3C//DTD SVG 20010904//EN"
 "http://www.w3.org/TR/2001/REC-SVG-20010904/DTD/svg10.dtd">
<svg version="1.0" xmlns="http://www.w3.org/2000/svg"
 width="500.000000pt" height="500.000000pt" viewBox="0 0 500.000000 500.000000"
 preserveAspectRatio="xMidYMid meet">
<metadata>
Created by potrace 1.11, written by Peter Selinger 2001-2013
</metadata>
<g transform="translate(0.000000,500.000000) scale(0.100000,-0.100000)"
fill="#000000" stroke="none">
<path d="M0 4900 c0 -60 4 -100 10 -100 6 0 10 -9 10 -20 0 -11 5 -20 11 -20
5 0 8 4 5 9 -3 5 3 11 14 14 13 3 20 0 20 -10 0 -8 4 -12 9 -8 5 3 24 -9 40
-27 26 -28 33 -31 41 -18 7 11 10 2 10 -32 0 -27 5 -48 10 -48 13 0 13 -37 0
-42 -5 -1 -11 -16 -13 -33 -2 -16 -8 -41 -14 -55 -45 -103 -63 -150 -62 -157
3 -18 -2 -32 -17 -48 -13 -12 -14 -19 -5 -28 15 -15 14 -27 -2 -27 -7 0 -21
-24 -32 -52 -10 -29 -22 -58 -26 -64 -5 -6 -9 -837 -9 -1846 l0 -1835 52 -35
c68 -46 79 -51 176 -87 83 -30 263 -146 282 -181 6 -10 10 -37 10 -59 0 -22 5
-41 12 -44 10 -3 10 -9 1 -25 l-13 -21 772 -1 c607 0 770 2 760 12 -23 23 -12
28 21 8 20 -13 50 -20 81 -20 47 0 48 0 41 27 -3 15 -20 53 -36 86 -34 70 -37
97 -9 104 19 5 24 14 21 41 -3 18 22 39 38 34 9 -3 11 2 6 17 -7 24 12 30 21
6 5 -11 13 -5 33 22 21 29 25 42 18 54 -14 23 24 60 54 52 18 -5 21 -3 16 12
-9 23 12 52 24 33 13 -20 22 -2 10 20 -16 31 19 41 39 11 19 -28 39 -127 39
-196 1 -29 6 -55 13 -59 22 -14 122 -33 128 -25 3 5 17 9 32 9 14 0 47 10 73
22 29 14 56 20 73 17 22 -5 30 0 43 22 10 18 13 34 8 43 -7 12 -3 14 19 11 16
-3 22 -1 16 4 -9 6 -8 12 3 22 12 11 14 11 12 0 -4 -34 0 -42 16 -29 8 7 15
16 15 20 0 11 -125 110 -138 110 -5 0 -15 6 -21 14 -17 20 -186 116 -205 116
-21 0 -21 26 0 34 10 4 14 12 10 22 -4 11 -2 15 8 11 17 -7 30 20 13 27 -9 3
-9 5 0 5 9 1 10 8 3 27 -13 33 -13 33 10 27 11 -3 20 -11 20 -18 0 -7 6 -18
14 -24 11 -9 15 -6 18 14 3 14 2 28 -2 30 -12 7 -18 52 -9 67 7 10 9 10 10 -2
3 -35 17 -70 28 -70 12 0 7 46 -7 62 -10 13 -10 19 4 33 13 13 14 19 5 25 -10
5 -10 13 -2 29 6 11 15 30 21 41 5 10 7 27 4 37 -3 10 2 6 11 -9 16 -29 39
-39 29 -13 -4 10 0 15 12 15 16 0 15 3 -5 13 -14 6 -26 19 -28 27 -3 11 -1 11
10 -2 21 -26 29 -22 22 11 -7 32 9 51 28 32 6 -6 18 -11 26 -10 11 0 12 2 4 6
-7 2 -13 13 -13 23 0 13 5 17 20 13 24 -6 25 1 5 57 -20 55 -19 67 2 48 29
-25 44 -12 25 22 -14 25 -15 31 -2 54 11 21 11 33 2 59 -6 18 -13 55 -14 83
-2 39 -6 50 -17 46 -8 -3 -12 -1 -8 5 4 6 0 14 -9 17 -9 3 -14 13 -10 21 3 8
1 17 -4 20 -6 4 -10 16 -10 29 0 13 -18 39 -45 65 -25 24 -45 49 -45 56 0 7
-12 22 -27 33 -16 11 -25 23 -22 27 4 3 14 -1 22 -10 17 -17 37 -20 37 -6 0 6
-5 13 -10 16 -6 4 -8 15 -5 25 3 11 0 20 -10 24 -9 3 -14 10 -10 15 3 5 1 13
-5 16 -6 4 -8 15 -5 25 3 11 0 20 -10 24 -8 3 -15 11 -15 19 0 10 -15 13 -57
11 -34 -1 -64 4 -73 11 -28 23 -107 47 -132 40 -12 -4 -20 -4 -16 0 4 5 4 13
-1 19 -4 6 -5 36 -2 66 7 61 27 76 58 44 17 -17 18 -17 21 5 5 34 -24 69 -76
93 -78 35 -84 37 -182 62 -52 13 -106 29 -120 35 -55 22 -130 136 -130 197 0
40 22 105 37 111 7 3 13 16 13 29 0 21 5 26 26 23 3 0 17 16 31 36 18 26 22
40 14 49 -8 9 -5 18 8 33 23 25 11 43 -28 43 -19 0 -22 -3 -12 -9 7 -5 10 -14
6 -21 -6 -9 -9 -9 -16 1 -7 11 -9 11 -9 1 0 -9 -10 -11 -34 -7 -30 6 -35 4
-55 -30 -11 -20 -21 -43 -21 -52 0 -8 -9 -17 -20 -20 -11 -3 -20 -10 -20 -15
0 -5 4 -6 10 -3 5 3 10 -3 10 -13 0 -21 -26 -37 -35 -22 -3 5 -12 7 -20 4 -12
-5 -11 -12 5 -42 11 -20 20 -40 20 -44 0 -16 -33 -38 -50 -33 -9 3 -23 -1 -30
-10 -8 -10 -9 -15 -1 -15 6 0 11 -5 11 -11 0 -6 -10 -8 -22 -5 -13 3 -17 3
-10 0 13 -6 17 -34 4 -34 -4 0 -17 6 -28 14 -19 13 -23 12 -46 -9 l-26 -24
-11 30 c-6 18 -15 28 -21 24 -7 -4 -14 2 -17 14 -6 25 -16 27 -33 6 -12 -14
-58 -11 -70 5 -9 11 -40 20 -40 11 0 -5 -14 -14 -30 -20 -35 -12 -60 -34 -60
-53 0 -10 -3 -9 -10 2 -5 8 -12 11 -15 8 -4 -4 -17 -3 -30 2 -20 8 -22 6 -17
-13 5 -20 4 -20 -11 -8 -9 7 -17 21 -17 31 0 20 -26 34 -35 19 -9 -13 5 -52
23 -65 8 -6 12 -19 10 -30 -4 -16 -6 -15 -16 9 -10 23 -16 26 -38 21 -19 -5
-25 -4 -20 5 5 7 0 11 -13 11 -12 0 -21 -4 -21 -9 0 -4 -27 -11 -60 -15 -36
-4 -60 -12 -60 -19 0 -7 -5 -5 -10 5 -6 10 -18 14 -30 11 -19 -5 -20 -2 -15
23 5 27 4 27 -12 -6 -10 -19 -21 -36 -25 -38 -5 -2 -8 -12 -8 -22 0 -9 -7 -23
-15 -30 -8 -7 -15 -23 -15 -36 0 -12 -7 -29 -15 -38 -8 -8 -12 -21 -9 -30 4
-9 -4 -20 -22 -29 -17 -9 -28 -24 -30 -40 -3 -29 -33 -76 -49 -77 -13 0 -80
-70 -81 -84 -1 -23 -28 -85 -35 -81 -4 3 -10 -2 -13 -11 -5 -13 0 -12 29 4 38
23 51 16 41 -24 -4 -13 -3 -24 1 -23 27 4 33 -1 21 -20 -7 -11 -14 -19 -17
-19 -21 2 -30 -5 -35 -27 -4 -14 -11 -25 -17 -25 -7 0 -9 9 -5 23 4 12 9 37
12 56 2 19 7 39 10 45 8 15 -29 -28 -42 -50 -7 -11 -15 -16 -20 -11 -4 4 -2
13 4 19 18 18 15 28 -8 28 -21 0 -27 15 -10 25 5 3 10 14 10 23 0 12 -9 7 -33
-18 -17 -20 -29 -31 -24 -26 12 16 8 31 -5 18 -17 -17 -33 -15 -18 3 7 9 10
18 6 22 -3 3 2 15 11 26 13 15 15 21 6 24 -7 3 -13 16 -13 30 0 21 3 23 22 18
22 -7 22 -6 6 11 -17 17 -18 17 -37 0 -19 -17 -19 -17 -14 2 2 11 14 22 24 25
15 4 18 11 14 30 -4 16 -1 30 10 41 9 9 12 16 6 16 -6 0 -23 -14 -38 -30 -27
-30 -47 -34 -23 -4 12 13 11 17 -1 25 -11 7 -11 9 0 9 7 0 11 6 8 13 -2 6 0
23 4 36 8 20 14 23 42 17 30 -5 31 -5 9 7 -22 13 -22 14 -4 30 10 9 23 17 29
17 10 0 23 22 23 37 0 3 -11 -2 -25 -11 -14 -9 -25 -13 -25 -9 0 5 11 25 25
45 14 20 25 40 25 44 0 4 -11 -5 -25 -20 -14 -15 -25 -31 -25 -36 0 -9 -32
-30 -44 -30 -7 0 27 63 39 72 6 5 4 8 -4 8 -11 0 -9 6 7 23 14 15 19 30 15 45
-7 27 -11 27 -40 0 -13 -12 -23 -17 -23 -11 0 6 5 13 11 15 6 2 12 13 13 25 0
12 14 31 29 43 20 16 25 26 18 33 -7 7 -15 6 -26 -3 -8 -7 -15 -8 -15 -3 0 14
67 100 82 106 24 9 -6 26 -35 20 -20 -4 -25 -9 -17 -18 7 -9 6 -16 -4 -25 -19
-15 -37 -4 -29 18 6 15 5 15 -10 3 -9 -7 -15 -17 -12 -21 3 -5 -5 -16 -17 -24
-36 -25 -44 -18 -15 12 15 15 27 32 27 37 0 5 7 16 16 26 20 22 26 79 7 72 -7
-3 -13 -8 -13 -12 0 -4 -8 -16 -18 -27 -9 -10 -29 -34 -44 -52 -26 -31 -28
-32 -38 -12 -9 16 -8 18 5 14 19 -8 20 10 0 26 -20 17 -19 33 5 82 25 52 25
71 1 39 -23 -31 -56 -39 -38 -10 7 12 8 22 2 28 -13 13 -26 3 -49 -37 -13 -25
-15 -37 -7 -45 13 -13 15 -31 2 -23 -5 3 -23 -8 -41 -24 -39 -36 -45 -37 -45
-5 0 15 5 23 12 21 14 -6 25 32 11 40 -5 3 -2 15 9 27 17 19 17 20 1 14 -10
-4 -18 -2 -18 3 0 6 4 10 10 10 9 0 33 71 25 78 -2 2 -10 -5 -17 -17 -7 -12
-17 -21 -21 -21 -13 0 3 42 24 66 21 23 24 34 8 34 -5 0 -8 -4 -5 -9 4 -5 -9
-19 -28 -31 -20 -12 -44 -40 -56 -65 -22 -45 -47 -62 -37 -25 3 11 1 18 -4 14
-5 -3 -9 -13 -9 -23 0 -26 -10 -32 -26 -16 -18 18 -18 29 0 22 10 -4 13 -1 10
7 -3 7 2 19 11 26 8 7 15 18 15 25 0 6 11 17 25 23 29 13 34 32 6 25 -27 -7
-35 13 -17 39 13 18 16 19 16 5 0 -9 5 -17 10 -17 6 0 10 5 10 12 0 6 29 42
65 79 61 63 77 89 56 89 -5 0 -13 -9 -16 -20 -9 -29 -25 -24 -25 8 0 27 -1 27
-18 7 -23 -28 -80 -74 -63 -53 7 10 11 28 8 39 -3 12 0 28 8 35 18 18 25 18
25 -3 0 -15 2 -14 19 3 23 25 36 64 22 64 -6 0 -11 -6 -12 -12 0 -7 -4 -4 -9
7 -5 13 -3 26 6 36 8 8 14 23 14 33 0 17 22 46 34 46 3 0 6 -8 6 -17 0 -9 2
-14 5 -11 8 7 -5 58 -14 58 -4 0 -15 -15 -26 -32 l-19 -33 -12 40 c-7 22 -10
51 -7 64 5 21 3 22 -18 16 -13 -4 -27 -13 -31 -19 -12 -20 -48 -59 -48 -52 0
5 8 21 17 37 14 24 15 32 5 38 -7 4 -10 15 -7 23 4 9 2 19 -4 23 -6 3 -11 24
-11 46 0 21 -4 39 -10 39 -5 0 -10 7 -10 15 0 8 5 15 11 15 7 0 9 10 7 25 -3
14 -1 28 3 31 11 6 12 24 1 24 -4 0 -13 -15 -20 -32 -36 -88 -46 -108 -52
-108 -7 0 -6 61 0 68 1 1 3 8 4 15 1 6 7 11 14 9 14 -2 39 45 29 55 -4 4 -13
-2 -21 -13 -13 -17 -14 -17 -9 9 7 34 -13 36 -21 2 -7 -27 -26 -34 -26 -9 0 8
5 12 11 8 8 -5 9 6 4 35 -4 27 -3 41 4 41 6 0 11 6 11 14 0 7 9 25 21 40 15
19 17 26 7 26 -8 0 -19 -5 -26 -12 -16 -16 -15 1 3 32 23 40 19 57 -8 32 -30
-28 -37 -28 -37 3 0 14 5 24 11 22 6 -1 14 4 17 12 3 9 0 11 -8 6 -19 -12 -6
61 14 81 9 8 16 23 16 32 0 8 10 35 21 59 15 30 20 55 16 78 -4 27 -1 37 18
51 18 13 23 24 19 41 -6 24 11 33 18 11 8 -24 77 34 101 84 13 27 27 45 35 43
7 -3 12 4 12 15 0 13 5 18 15 14 10 -4 15 0 15 14 0 11 6 27 13 34 6 7 21 31
32 52 13 26 30 43 50 49 17 6 34 15 38 21 5 6 7 2 4 -11 -4 -18 -2 -21 10 -14
20 11 53 2 53 -14 0 -33 95 -61 154 -44 17 5 34 5 39 0 5 -5 25 -4 45 1 46 12
63 13 85 3 10 -4 17 -3 17 4 0 6 -7 11 -15 11 -9 0 -18 7 -21 15 -4 9 -19 15
-39 15 -21 0 -35 6 -39 16 -4 12 -1 14 14 9 11 -3 32 -8 47 -11 50 -9 63 -15
63 -31 0 -8 6 -13 13 -10 8 3 14 -3 14 -14 1 -11 -5 -19 -13 -19 -18 0 -18 -8
0 -26 18 -17 40 -18 53 -1 14 17 12 47 -3 47 -7 0 -16 5 -19 10 -4 6 6 10 24
10 23 0 29 -4 25 -15 -4 -8 -1 -15 5 -15 6 0 11 5 11 11 0 12 42 6 113 -19 53
-18 58 -28 22 -42 -30 -11 -31 -21 -5 -45 28 -26 25 -45 -7 -46 -16 -1 -32 -2
-38 -4 -5 -1 -16 -3 -22 -3 -25 -4 -12 -20 42 -53 31 -19 53 -39 51 -46 -3 -6
0 -14 7 -17 7 -2 2 -5 -10 -5 -20 -1 -21 -4 -12 -31 6 -16 18 -30 26 -30 8 0
11 -5 8 -10 -3 -6 0 -13 8 -16 8 -3 17 -18 21 -34 9 -48 48 -99 80 -106 16 -3
25 -9 19 -13 -5 -3 -9 -17 -9 -31 -1 -14 -4 -41 -8 -60 -3 -19 -3 -28 0 -20
81 190 131 282 77 143 -50 -130 -55 -149 -78 -257 -15 -77 -24 -102 -28 -85
-3 13 -2 42 3 64 12 52 12 62 1 50 -42 -45 -40 -345 3 -345 6 0 26 -33 45 -72
26 -57 51 -90 113 -150 43 -43 84 -78 90 -78 6 0 -16 24 -49 54 -67 62 -144
169 -168 236 -20 55 -23 193 -6 270 10 46 34 123 59 190 3 8 6 21 8 28 5 27
15 25 26 -6 7 -19 20 -32 33 -34 12 -2 19 -9 17 -19 -2 -16 20 -41 77 -89 16
-14 30 -29 30 -35 1 -11 56 -45 73 -45 13 0 38 -26 38 -40 0 -18 30 -70 41
-70 5 0 26 -16 46 -36 29 -29 33 -38 22 -46 -10 -6 -3 -8 22 -4 33 6 40 3 73
-34 38 -43 44 -55 22 -47 -9 4 -12 0 -9 -13 7 -25 50 -34 138 -31 97 4 108 6
124 15 8 5 16 4 21 -4 5 -8 13 -9 21 -4 19 11 68 5 102 -12 32 -17 47 -11 48
19 0 21 1 21 11 -3 l11 -25 7 25 c8 25 8 25 15 3 9 -27 41 -39 60 -23 12 10
15 9 15 -4 0 -9 6 -16 14 -16 9 0 17 -15 21 -40 4 -25 12 -40 21 -40 8 0 14
-9 14 -21 0 -11 5 -17 10 -14 6 3 10 -3 10 -14 0 -12 4 -21 9 -21 5 0 13 -9
16 -21 7 -20 10 -18 51 22 l45 44 -26 8 c-14 5 -24 14 -22 20 5 13 11 13 42 1
18 -7 18 -6 6 9 -9 12 -10 17 -2 17 7 0 9 5 6 10 -3 6 -1 10 5 10 7 0 10 -7 7
-15 -4 -8 -2 -17 3 -20 11 -7 66 63 85 109 9 20 20 36 25 36 6 0 10 8 10 18 0
14 -3 13 -18 -6 -16 -21 -20 -22 -31 -9 -7 9 -30 18 -51 22 -35 6 -38 9 -28
25 7 10 16 16 20 14 10 -6 11 10 1 20 -5 4 -8 26 -9 49 -1 23 -4 57 -8 75 -3
17 -2 32 3 32 14 0 1 123 -15 141 -19 21 -18 64 3 80 9 8 18 13 20 12 11 -9
15 -1 5 9 -21 21 -13 30 11 11 16 -12 22 -24 19 -40 -3 -18 0 -23 16 -23 11 0
27 -3 36 -6 25 -10 30 23 8 50 -11 14 -22 22 -26 18 -4 -3 -4 1 -1 9 4 10 -3
20 -20 29 -14 7 -25 19 -25 27 0 7 -4 13 -9 13 -4 0 -28 19 -52 43 -56 56
-145 120 -204 149 -39 19 -47 20 -55 8 -5 -8 -13 -11 -17 -6 -4 5 -2 11 5 13
17 6 15 25 -2 21 -8 -2 -15 2 -16 7 -3 21 -32 27 -48 11 -11 -10 -12 -16 -4
-16 7 0 12 6 13 13 0 6 4 2 9 -10 5 -13 14 -23 20 -23 5 0 10 -9 10 -19 0 -14
5 -18 20 -14 21 6 28 -13 8 -20 -7 -2 -3 -2 9 0 17 2 21 -1 17 -12 -4 -9 1
-17 12 -21 30 -11 54 -36 54 -55 0 -21 39 -44 93 -54 20 -4 34 -11 31 -16 -3
-5 0 -9 6 -9 6 0 8 -5 4 -11 -5 -8 -9 -8 -14 1 -5 9 -17 10 -36 4 -16 -4 -36
-9 -44 -9 -8 -1 -21 -3 -27 -4 -7 0 -13 -9 -13 -20 0 -10 -9 -21 -20 -24 -15
-4 -20 0 -20 14 0 10 -4 19 -10 19 -5 0 -10 7 -10 16 0 11 -6 14 -21 9 -16 -5
-19 -4 -14 5 5 8 1 18 -9 26 -9 6 -18 22 -19 33 -1 13 -13 26 -29 34 -15 6
-28 17 -28 22 0 12 -36 45 -49 45 -4 0 -21 13 -38 28 -16 16 -35 26 -41 24 -7
-2 -25 4 -40 14 -32 22 -89 44 -114 44 -10 0 -18 4 -18 9 0 5 -16 12 -36 16
-48 8 -88 24 -81 31 3 3 14 1 26 -5 13 -7 22 -8 26 -1 3 5 -3 10 -14 10 -12 0
-21 6 -21 14 0 8 -5 16 -12 18 -6 2 -9 12 -5 21 10 26 66 23 76 -5 l8 -21 20
20 c17 17 27 19 62 13 40 -7 67 -20 43 -20 -7 0 -12 -4 -12 -10 0 -5 7 -10 15
-10 8 0 15 -4 15 -10 0 -5 5 -10 11 -10 7 0 9 9 6 21 -3 13 -1 19 6 16 7 -2
14 -12 16 -22 4 -24 21 -40 49 -49 12 -4 22 -15 22 -24 0 -12 3 -13 12 -4 13
13 42 17 34 4 -2 -4 3 -16 11 -27 9 -12 13 -14 11 -5 -3 8 2 21 11 28 14 12
14 13 -1 8 -11 -3 -22 2 -28 14 -7 13 -21 20 -42 20 -17 0 -28 3 -24 7 3 4 -4
13 -16 20 -20 10 -20 12 -5 13 11 0 31 -6 45 -14 15 -8 69 -35 120 -60 142
-70 267 -159 372 -265 202 -204 212 -227 184 -400 -9 -56 -102 -238 -161 -316
-87 -114 -279 -279 -379 -325 -175 -81 -235 -82 -479 -6 -27 8 -51 13 -53 11
-2 -2 7 -7 21 -10 17 -5 24 -12 20 -21 -3 -8 0 -14 7 -14 6 0 8 5 5 10 -7 11
6 13 30 4 13 -5 14 -9 4 -15 -11 -6 -10 -9 1 -12 8 -2 32 -10 53 -16 72 -24
202 -23 307 1 8 1 14 -3 12 -9 -1 -7 5 -13 14 -13 8 0 13 4 10 9 -3 5 5 16 19
25 14 9 25 14 25 11 0 -4 12 2 28 13 26 19 74 47 157 91 22 11 36 21 31 21 -5
0 17 18 48 41 35 25 55 46 52 55 -3 9 0 11 11 7 13 -5 15 -2 10 11 -5 13 -1
19 13 23 11 3 25 20 32 39 7 19 17 34 24 34 6 0 20 11 30 25 10 14 25 23 32
20 7 -3 10 0 7 6 -4 5 5 21 19 34 15 13 21 27 16 30 -12 7 -4 44 21 100 9 22
21 51 25 65 9 33 21 40 72 40 34 0 42 3 42 18 0 10 7 27 16 38 15 19 15 18 11
-3 -4 -16 1 -24 17 -29 111 -35 309 -174 247 -174 -7 0 -19 9 -67 49 -6 5 -26
17 -44 26 -33 17 -33 17 -57 -12 -28 -33 -63 -104 -69 -142 -12 -69 -16 -229
-6 -235 5 -3 13 5 16 19 4 14 11 25 16 25 6 0 10 6 10 14 0 18 22 26 49 19 17
-4 21 -13 21 -48 0 -23 -8 -57 -17 -76 -9 -19 -16 -51 -16 -71 1 -21 -2 -38
-6 -38 -20 0 -38 -130 -39 -265 0 -123 1 -131 8 -64 4 42 12 98 18 125 6 27
18 85 27 129 19 91 46 175 56 175 3 0 6 17 6 38 1 41 69 187 103 217 28 26 25
1 -4 -38 -20 -27 -86 -159 -86 -173 0 -2 4 -4 8 -4 5 0 17 18 27 40 13 30 23
39 34 35 9 -4 33 -12 54 -18 20 -7 37 -15 37 -19 0 -4 6 -5 14 -2 8 3 17 1 21
-5 6 -11 55 -16 55 -6 0 3 -11 18 -25 33 -24 25 -34 62 -17 62 4 0 15 -12 23
-26 l16 -26 26 33 c14 19 29 46 32 62 9 33 23 44 31 23 3 -9 12 -16 20 -16 8
0 14 -7 14 -15 0 -8 3 -15 8 -15 26 0 56 -119 38 -149 -6 -9 -2 -12 15 -9 16
2 24 9 23 21 -1 9 2 17 7 17 5 0 9 9 9 21 0 25 -51 139 -62 139 -4 0 -8 12 -8
27 0 21 3 24 12 15 7 -7 26 -12 44 -12 26 0 33 5 36 25 5 25 -7 36 -14 13 -3
-9 -6 -9 -12 0 -4 7 -2 12 3 12 6 0 11 7 11 15 0 20 -58 29 -154 22 -78 -5
-80 -5 -52 10 47 24 205 12 340 -27 89 -25 111 -28 125 -18 9 7 18 14 20 15
14 10 -73 57 -174 95 -170 64 -303 90 -392 76 -31 -5 -59 -11 -62 -13 -6 -6
-81 37 -81 47 0 4 -6 8 -14 8 -8 0 -24 9 -37 20 -29 23 -5 28 25 5 25 -19 36
-19 36 0 0 8 5 15 10 15 6 0 10 -4 10 -10 0 -5 8 -10 18 -10 14 0 15 -2 2 -10
-13 -9 -13 -10 0 -10 17 0 51 20 35 20 -5 0 -4 4 4 9 16 11 47 3 62 -15 12
-15 34 -20 25 -6 -7 11 67 9 75 -1 4 -5 42 -11 85 -13 44 -3 93 -9 109 -14 31
-10 37 -10 119 -10 45 0 48 -2 43 -23 -3 -12 -2 -30 2 -40 6 -17 8 -17 19 -4
7 8 12 19 11 23 -4 24 3 33 28 36 19 2 32 13 43 33 8 16 23 36 32 43 10 7 18
17 18 23 0 12 49 88 73 111 9 10 17 27 17 38 0 11 9 25 20 32 11 7 20 16 20
21 0 4 16 21 35 38 29 26 35 38 35 70 0 45 8 43 -125 24 -191 -28 -296 -16
-427 49 -114 57 -143 98 -143 203 l0 75 60 24 c60 25 92 33 255 60 108 19 132
19 175 -2 32 -15 37 -15 59 0 14 9 32 13 42 9 10 -4 20 0 26 11 6 11 16 14 34
10 20 -5 24 -2 24 15 0 27 11 27 34 -1 18 -21 19 -21 33 -2 8 10 18 26 23 34
7 12 11 13 21 3 18 -18 59 -16 59 2 0 8 5 15 10 15 6 0 10 8 10 18 0 10 5 23
11 29 6 6 32 54 58 108 46 93 48 101 50 189 1 50 4 117 7 149 l7 57 -723 0
-722 0 16 -22 c9 -13 21 -35 27 -50 6 -14 17 -29 26 -32 11 -4 13 -14 9 -31
-4 -14 -1 -35 6 -48 7 -12 13 -31 14 -42 4 -37 29 -95 40 -95 7 0 14 -7 18
-15 6 -18 37 -20 54 -3 9 9 18 9 37 0 34 -16 32 -30 -7 -47 -20 -9 -26 -14
-15 -15 15 0 17 -6 11 -35 -7 -38 14 -75 43 -75 7 0 13 -4 13 -10 0 -5 6 -10
14 -10 19 0 75 -30 56 -30 -10 0 -8 -6 8 -18 20 -16 22 -25 20 -85 -2 -37 -7
-67 -13 -67 -5 0 -3 -5 5 -11 12 -8 12 -12 2 -16 -10 -4 -10 -8 -1 -19 9 -11
9 -14 0 -14 -7 0 -11 -8 -10 -17 3 -34 -1 -43 -20 -43 -10 0 -24 -7 -31 -15
-7 -8 -9 -15 -5 -15 4 0 2 -7 -5 -15 -9 -11 -15 -12 -25 -2 -7 7 -12 17 -12
22 1 6 -10 11 -25 13 -35 4 -37 22 -3 22 16 0 25 6 25 16 0 10 -5 14 -15 10
-20 -7 -55 14 -55 33 0 10 -9 12 -32 9 -43 -7 -62 0 -48 17 7 9 6 16 -5 25
-12 10 -15 10 -15 -4 0 -9 -4 -16 -9 -16 -17 0 -17 34 -1 62 12 22 13 29 2 40
-11 11 -15 10 -23 -4 -12 -22 -33 -24 -25 -3 8 21 0 19 -24 -7 -15 -17 -20
-18 -20 -6 0 9 7 21 15 28 17 14 20 40 6 40 -6 0 -13 -5 -16 -11 -5 -7 -11 -5
-18 5 -10 13 -15 13 -31 1 -10 -7 -15 -18 -12 -23 11 -19 -18 -18 -36 0 -25
25 -62 24 -55 -2 4 -16 2 -18 -12 -11 -9 5 -24 18 -35 29 -10 12 -24 18 -34
15 -11 -5 -14 -2 -9 10 5 12 1 17 -13 17 -11 0 -19 3 -19 8 5 28 -5 32 -114
35 -31 1 -57 6 -57 10 0 5 -18 6 -39 2 -22 -4 -42 -2 -45 3 -3 6 -25 14 -49
18 -35 6 -39 8 -22 16 15 6 12 7 -13 3 -18 -2 -31 -1 -28 4 8 12 -55 21 -76
10 -13 -7 -15 -5 -11 11 4 15 0 20 -15 20 -11 0 -29 11 -40 25 -21 26 -68 49
-83 39 -5 -3 -9 0 -9 5 0 6 6 11 14 11 8 0 18 6 22 13 4 6 4 9 0 5 -4 -3 -20
-2 -36 2 -20 6 -34 4 -47 -5 -10 -8 -28 -11 -42 -8 -33 8 -73 44 -67 60 7 18
-54 17 -68 -1 -9 -12 -21 -13 -61 -5 -27 5 -65 10 -83 11 -23 1 -31 5 -28 15
3 8 -2 13 -14 13 -23 0 -26 -10 -8 -28 7 -7 8 -12 2 -12 -6 0 -16 6 -23 13
-10 10 -11 9 -6 -5 5 -13 2 -18 -9 -18 -9 0 -16 5 -16 11 0 7 -19 8 -57 4 -51
-5 -56 -4 -41 8 10 8 15 17 11 20 -3 4 -12 2 -19 -3 -6 -6 -16 -10 -20 -9 -5
1 -22 -3 -39 -10 -16 -7 -56 -13 -89 -12 -38 1 -64 -3 -75 -12 -9 -8 -24 -15
-33 -16 -10 -1 -29 -3 -42 -4 -14 -1 -22 -7 -19 -14 3 -7 1 -13 -5 -13 -6 0
-12 4 -14 9 -3 9 -255 77 -398 108 -36 7 -81 18 -100 23 -19 5 -55 14 -80 20
-52 13 -76 30 -42 30 12 0 23 7 23 15 1 8 2 21 3 28 1 6 10 11 20 10 13 -1 15
2 7 10 -14 14 -15 30 -1 22 6 -3 10 -1 10 4 0 20 18 11 23 -10 5 -20 7 -20 22
-6 8 9 15 20 14 24 -1 4 -1 15 0 23 1 12 3 12 9 2 6 -9 12 -6 20 13 l12 25
-455 0 -455 0 0 -100z m1940 -200 c12 -8 9 -10 -13 -10 -16 0 -26 4 -22 10 8
12 16 12 35 0z m-150 -16 c0 -2 -7 -4 -15 -4 -8 0 -15 4 -15 10 0 5 7 7 15 4
8 -4 15 -8 15 -10z m-265 -4 c-3 -5 -13 -10 -21 -10 -8 0 -14 5 -14 10 0 6 9
10 21 10 11 0 17 -4 14 -10z m355 0 c0 -5 -15 -10 -32 -9 -28 0 -30 2 -13 9
28 12 45 12 45 0z m-150 -10 c0 -5 -4 -10 -10 -10 -5 0 -10 5 -10 10 0 6 5 10
10 10 6 0 10 -4 10 -10z m-135 -56 c103 -36 98 -36 -43 -6 -64 14 -79 21 -70
30 7 7 12 12 13 12 0 0 45 -16 100 -36z m226 -64 c167 -49 353 -112 364 -123
7 -7 4 -8 -10 -2 -29 11 -261 84 -320 101 -116 34 -155 46 -155 50 0 8 17 4
121 -26z m-246 -43 c54 -29 60 -35 58 -61 -4 -50 -17 -52 -93 -15 -38 18 -70
39 -70 44 0 19 25 65 35 65 6 0 37 -15 70 -33z m-875 -11 c0 -11 -19 -15 -25
-6 -3 5 1 10 9 10 9 0 16 -2 16 -4z m2085 -37 c11 -17 -1 -21 -15 -4 -8 9 -8
15 -2 15 6 0 14 -5 17 -11z m-960 -80 c-48 -12 -58 -20 -49 -44 6 -16 9 -15
25 6 16 21 18 22 24 6 4 -9 13 -17 21 -17 16 0 19 -26 4 -35 -5 -3 -10 -3 -10
2 0 11 -94 8 -150 -5 -25 -6 -48 -8 -52 -6 -5 3 -8 0 -8 -5 0 -6 -5 -11 -10
-11 -6 0 -5 8 2 20 7 11 16 20 21 20 4 0 5 -4 2 -10 -3 -5 -1 -10 5 -10 7 0 9
8 5 19 -9 30 99 78 175 79 l35 0 -40 -9z m158 -6 c-7 -2 -19 -2 -25 0 -7 3 -2
5 12 5 14 0 19 -2 13 -5z m-646 -25 c-3 -8 -6 -5 -6 6 -1 11 2 17 5 13 3 -3 4
-12 1 -19z m-4 -56 c-3 -12 -9 -22 -14 -22 -12 0 -11 7 3 30 15 24 19 21 11
-8z m-83 -12 c0 -5 -5 -10 -11 -10 -5 0 -7 5 -4 10 3 6 8 10 11 10 2 0 4 -4 4
-10z m-1170 -147 c0 -14 -19 -38 -25 -32 -8 8 5 39 16 39 5 0 9 -3 9 -7z
m1770 -64 c0 -5 -4 -9 -10 -9 -5 0 -10 7 -10 16 0 8 5 12 10 9 6 -3 10 -10 10
-16z m-1770 -73 c0 -3 -4 -8 -10 -11 -5 -3 -10 -1 -10 4 0 6 5 11 10 11 6 0
10 -2 10 -4z m30 -20 c0 -2 -7 -7 -16 -10 -8 -3 -12 -2 -9 4 6 10 25 14 25 6z
m1880 -16 c0 -5 -2 -10 -4 -10 -3 0 -8 5 -11 10 -3 6 -1 10 4 10 6 0 11 -4 11
-10z m40 0 c0 -5 -8 -10 -17 -10 -15 0 -16 2 -3 10 19 12 20 12 20 0z m157
-23 c1 -17 -4 -30 -13 -34 -23 -9 -37 12 -30 42 9 36 40 30 43 -8z m498 -47
c-3 -5 -15 -10 -26 -10 -10 0 -19 5 -19 10 0 6 12 10 26 10 14 0 23 -4 19 -10z
m138 -54 c-3 -4 -9 -2 -14 5 -13 22 -11 31 5 17 8 -7 12 -17 9 -22z m-963 10
c0 -3 -4 -8 -10 -11 -5 -3 -10 -1 -10 4 0 6 5 11 10 11 6 0 10 -2 10 -4z m60
-16 c0 -5 -9 -10 -21 -10 -11 0 -17 5 -14 10 3 6 13 10 21 10 8 0 14 -4 14
-10z m44 -26 c4 -10 1 -14 -6 -12 -15 5 -23 28 -10 28 5 0 13 -7 16 -16z
m1246 6 c0 -5 -5 -10 -11 -10 -5 0 -7 5 -4 10 3 6 8 10 11 10 2 0 4 -4 4 -10z
m70 -70 c0 -5 -4 -10 -10 -10 -5 0 -10 5 -10 10 0 6 5 10 10 10 6 0 10 -4 10
-10z m48 -20 c24 0 1 -18 -28 -21 -14 -2 -31 1 -39 6 -12 7 -11 10 5 16 10 4
25 6 32 3 8 -2 21 -4 30 -4z m-3269 -166 c-17 -21 -31 -17 -19 5 13 26 13 34
-2 25 -6 -4 -9 -3 -6 2 3 5 8 18 13 29 7 18 9 16 17 -13 6 -24 5 -38 -3 -48z
m1255 -39 c6 -94 -7 -103 -19 -13 -6 41 1 115 10 106 2 -2 6 -44 9 -93z
m-1273 -12 c13 -16 12 -17 -3 -4 -10 7 -18 15 -18 17 0 8 8 3 21 -13z m123
-11 c3 -5 -1 -9 -9 -9 -8 0 -12 4 -9 9 3 4 7 8 9 8 2 0 6 -4 9 -8z m-114 -17
c0 -2 -9 -3 -19 -2 -11 0 -18 5 -15 9 4 6 34 0 34 -7z m46 -37 c-9 -12 -16
-19 -16 -15 0 11 24 47 28 42 2 -2 -3 -14 -12 -27z m-66 12 c0 -5 -5 -10 -11
-10 -5 0 -7 5 -4 10 3 6 8 10 11 10 2 0 4 -4 4 -10z m70 -70 c0 -11 -4 -20
-10 -20 -5 0 -10 9 -10 20 0 11 5 20 10 20 6 0 10 -9 10 -20z m2590 -2 c0 -13
-5 -30 -11 -38 -8 -12 -9 -10 -4 8 l6 22 -37 -25 c-54 -37 -71 -32 -36 11 36
45 82 57 82 22z m60 -16 c0 -20 -8 -32 -29 -45 -41 -24 -46 -21 -22 16 11 17
25 31 31 30 5 -2 10 4 10 12 0 8 2 15 5 15 3 0 5 -13 5 -28z m40 14 c0 -7 -6
-19 -14 -25 -11 -9 -12 -6 -8 14 5 26 22 35 22 11z m-2528 -106 c2 -31 -1 -44
-12 -48 -13 -5 -13 -3 -1 11 7 10 10 17 5 17 -5 0 -10 21 -11 48 -2 59 15 35
19 -28z m2638 60 c0 -5 -7 -10 -16 -10 -8 0 -12 5 -9 10 3 6 10 10 16 10 5 0
9 -4 9 -10z m-250 -35 c0 -8 -9 -20 -19 -27 -15 -9 -17 -15 -9 -25 14 -17 -2
-16 -26 2 -17 13 -18 15 -3 15 10 0 17 8 17 18 0 10 3 22 7 25 12 12 33 7 33
-8z m-2568 -43 c-7 -2 -12 -11 -13 -20 0 -10 -3 -12 -5 -5 -3 7 0 22 7 35 9
17 14 19 17 8 3 -7 0 -16 -6 -18z m3372 -51 c3 -5 0 -14 -7 -20 -10 -8 -19 -7
-33 5 -18 14 -18 15 5 8 16 -4 21 -3 17 5 -4 6 -3 11 3 11 5 0 12 -4 15 -9z
m-3218 -29 c-17 -16 -18 -16 -5 5 7 12 15 20 18 17 3 -2 -3 -12 -13 -22z
m2394 -12 c0 -5 -4 -10 -10 -10 -5 0 -10 5 -10 10 0 6 5 10 10 10 6 0 10 -4
10 -10z m-2415 -60 c-4 -12 -9 -19 -12 -17 -3 3 -2 15 2 27 4 12 9 19 12 17 3
-3 2 -15 -2 -27z m11 -127 c-10 -10 -19 5 -10 18 6 11 8 11 12 0 2 -7 1 -15
-2 -18z m-36 -18 c-7 -9 -15 -13 -18 -10 -3 2 1 11 8 20 7 9 15 13 18 10 3 -2
-1 -11 -8 -20z m-150 -111 c0 -8 -5 -12 -10 -9 -6 4 -8 11 -5 16 9 14 15 11
15 -7z m30 -39 c-7 -9 -15 -13 -17 -11 -6 6 20 36 26 30 2 -2 -2 -10 -9 -19z
m166 -22 c-4 -9 -1 -20 6 -24 7 -4 9 -11 5 -16 -5 -4 -12 -1 -16 6 -10 16 -34
5 -28 -13 2 -6 -16 -31 -41 -56 l-44 -45 27 45 c15 25 29 53 32 63 3 9 10 17
17 17 6 0 17 9 24 20 15 24 27 26 18 3z m157 -57 c4 -10 1 -13 -9 -9 -15 6
-19 23 -5 23 5 0 11 -7 14 -14z m-363 -26 c-6 -12 -14 -20 -17 -17 -2 3 1 14
8 26 17 26 24 19 9 -9z m190 -29 c0 -6 -4 -13 -10 -16 -5 -3 -10 1 -10 9 0 9
5 16 10 16 6 0 10 -4 10 -9z m160 -28 c0 -7 -4 -13 -10 -13 -5 0 -10 -7 -10
-15 0 -21 -50 -71 -80 -79 l-25 -7 28 23 c15 13 27 30 27 37 0 10 -3 11 -13 2
-8 -6 -17 -8 -20 -5 -4 4 5 15 18 26 13 10 22 25 19 33 -4 10 3 13 30 12 21
-1 36 -7 36 -14z m-183 -17 c-3 -6 -9 -10 -15 -9 -6 2 -19 -11 -29 -27 -21
-36 -35 -39 -31 -6 4 25 32 59 42 49 3 -4 6 -1 6 5 0 6 7 9 15 5 9 -3 14 -11
12 -17z m217 -63 c-9 -10 -34 -38 -55 -63 -21 -24 -39 -40 -39 -35 0 16 39 75
49 75 6 0 18 16 27 36 14 29 19 33 26 20 6 -10 3 -21 -8 -33z m59 -27 c-3 -4
-9 -2 -14 5 -13 22 -11 31 5 17 8 -7 12 -17 9 -22z m57 9 c-7 -9 -15 -13 -17
-11 -7 7 7 26 19 26 6 0 6 -6 -2 -15z m-390 -5 c0 -5 -4 -10 -10 -10 -5 0 -10
5 -10 10 0 6 5 10 10 10 6 0 10 -4 10 -10z m90 -5 c0 -8 -4 -15 -10 -15 -5 0
-7 7 -4 15 4 8 8 15 10 15 2 0 4 -7 4 -15z m120 11 c0 -3 -4 -8 -10 -11 -5 -3
-10 -1 -10 4 0 6 5 11 10 11 6 0 10 -2 10 -4z m-194 -48 c-16 -22 -16 -22 -16
-1 0 12 6 23 13 26 19 7 20 0 3 -25z m154 22 c0 -5 -4 -10 -10 -10 -5 0 -10 5
-10 10 0 6 5 10 10 10 6 0 10 -4 10 -10z m-193 -6 c-3 -3 -12 -4 -19 -1 -8 3
-5 6 6 6 11 1 17 -2 13 -5z m165 -36 c-9 -9 -12 -7 -12 12 0 19 3 21 12 12 9
-9 9 -15 0 -24z m143 22 c-3 -5 -10 -10 -16 -10 -5 0 -9 5 -9 10 0 6 7 10 16
10 8 0 12 -4 9 -10z m114 7 c-2 -1 -15 -11 -29 -22 l-25 -20 19 23 c11 12 24
22 29 22 6 0 8 -1 6 -3z m-273 -51 c3 -8 1 -24 -5 -35 -7 -13 -8 -22 -1 -26
12 -7 13 -25 2 -25 -5 0 -13 12 -18 28 l-10 27 -16 -32 c-9 -19 -12 -33 -6
-33 6 0 8 -7 4 -15 -3 -8 -1 -15 4 -15 6 0 10 9 10 20 0 22 7 25 29 11 11 -7
11 -15 3 -40 -19 -53 -31 -60 -74 -43 -44 17 -46 25 -15 55 23 23 39 95 18 83
-6 -4 -11 -16 -11 -27 0 -10 -4 -19 -9 -19 -5 0 -13 -9 -16 -20 -8 -27 -19
-25 -33 4 -10 22 -7 28 23 55 22 19 41 28 51 24 9 -3 20 0 25 8 8 12 10 12 18
0 6 -9 11 -10 15 -2 4 6 2 11 -3 11 -6 0 -11 5 -11 10 0 15 20 12 26 -4z m194
-21 c0 -8 -4 -15 -10 -15 -5 0 -7 7 -4 15 4 8 8 15 10 15 2 0 4 -7 4 -15z m28
-25 c-7 -10 -14 -17 -17 -15 -4 4 18 35 25 35 2 0 -1 -9 -8 -20z m1265 -12
c-2 -5 -10 -8 -18 -8 -8 0 -16 3 -18 8 -3 4 5 7 18 7 13 0 21 -3 18 -7z
m-1373 -27 c0 -6 -4 -13 -10 -16 -5 -3 -10 1 -10 9 0 9 5 16 10 16 6 0 10 -4
10 -9z m80 -16 c-7 -9 -15 -13 -18 -10 -3 2 1 11 8 20 7 9 15 13 18 10 3 -2
-1 -11 -8 -20z m-391 -29 c-9 -8 -10 -7 -5 7 3 10 7 24 7 30 1 7 3 4 6 -7 3
-10 -1 -23 -8 -30z m279 -15 c-8 -12 -18 -18 -22 -14 -3 4 -4 -9 0 -28 4 -21
2 -29 -3 -21 -7 10 -13 8 -27 -7 -13 -15 -14 -21 -5 -27 7 -4 15 -2 17 4 2 7
13 12 24 12 11 0 18 -5 15 -12 -2 -7 -9 -12 -15 -11 -5 1 -13 -4 -16 -13 -3
-8 -2 -12 4 -9 6 3 10 2 10 -4 0 -5 -4 -12 -9 -15 -5 -4 -19 -25 -30 -49 -21
-43 -80 -117 -94 -117 -9 0 11 37 37 67 11 13 17 25 14 29 -8 7 -58 -40 -58
-55 0 -6 -7 -11 -17 -11 -15 0 -15 2 1 19 9 10 18 31 20 47 4 33 42 75 62 67
14 -5 19 15 15 63 -1 12 5 27 14 34 8 7 15 17 15 22 0 5 10 22 23 38 25 31 47
23 25 -9z m82 19 c0 -5 -6 -10 -13 -10 -7 0 -18 -10 -26 -21 -11 -19 -11 -21
3 -16 21 8 20 5 -4 -16 -19 -16 -20 -16 -16 6 3 12 5 25 5 29 1 10 31 38 42
38 5 0 9 -4 9 -10z m-154 -42 c-9 -12 -16 -36 -16 -53 0 -16 -6 -37 -13 -46
-11 -15 -49 -39 -61 -39 -10 0 7 35 23 48 14 11 13 12 -7 7 -21 -6 -22 -5 -10
14 7 12 16 21 21 21 10 0 57 50 57 61 0 5 5 9 11 9 5 0 3 -10 -5 -22z m265
-49 c-12 -13 -21 -19 -21 -14 0 11 32 46 38 41 2 -3 -5 -15 -17 -27z m1803
-70 c20 -17 22 -24 12 -44 -15 -32 -47 -30 -35 3 13 33 11 42 -7 42 -8 0 -12
5 -9 10 9 14 11 13 39 -11z m-2214 -23 c0 -2 -8 -10 -17 -17 -16 -13 -17 -12
-4 4 13 16 21 21 21 13z m2176 -23 c-10 -10 -19 5 -10 18 6 11 8 11 12 0 2 -7
1 -15 -2 -18z m-1999 -57 c-12 -18 -13 -26 -4 -29 8 -3 0 -17 -20 -38 -18 -18
-35 -30 -38 -27 -4 3 6 18 21 33 22 22 24 29 13 36 -8 5 -9 9 -3 9 6 0 17 11
24 25 7 14 15 23 18 20 3 -2 -3 -15 -11 -29z m463 -60 c0 -2 -7 -9 -15 -16
-13 -11 -14 -10 -9 4 5 14 24 23 24 12z m-280 -20 c0 -3 -4 -8 -10 -11 -5 -3
-10 -1 -10 4 0 6 5 11 10 11 6 0 10 -2 10 -4z m-43 -22 c-3 -3 -12 -4 -19 -1
-8 3 -5 6 6 6 11 1 17 -2 13 -5z m-267 -20 c0 -8 -4 -12 -10 -9 -5 3 -10 10
-10 16 0 5 5 9 10 9 6 0 10 -7 10 -16z m75 6 c3 -5 1 -10 -4 -10 -6 0 -11 5
-11 10 0 6 2 10 4 10 3 0 8 -4 11 -10z m184 -33 c-2 -1 -13 -9 -24 -17 -19
-14 -19 -14 -6 3 7 9 18 17 24 17 6 0 8 -1 6 -3z m1140 -28 c-9 -17 -13 -19
-20 -8 -7 12 3 22 29 28 1 1 -2 -9 -9 -20z m-1100 -3 c-2 -2 -15 -9 -29 -15
-24 -11 -24 -11 -6 3 16 13 49 24 35 12z m-244 -50 c-28 -37 -35 -42 -35 -27
0 13 51 73 57 67 3 -3 -7 -21 -22 -40z m257 21 c-12 -6 -22 -15 -22 -22 0 -6
-17 -20 -37 -31 -21 -10 -39 -22 -41 -26 -2 -5 -8 -8 -14 -8 -6 0 -6 6 2 15 7
8 18 15 26 15 7 0 15 8 19 18 7 21 66 61 79 54 6 -3 0 -10 -12 -15z m1178 2
c0 -5 -4 -9 -10 -9 -5 0 -10 7 -10 16 0 8 5 12 10 9 6 -3 10 -10 10 -16z
m-200 -9 c0 -5 -5 -10 -11 -10 -5 0 -7 5 -4 10 3 6 8 10 11 10 2 0 4 -4 4 -10z
m193 -16 c20 -7 22 -20 5 -27 -8 -3 -6 -6 5 -6 9 -1 17 4 17 10 0 5 5 7 11 4
21 -14 -27 -34 -65 -28 -29 5 -36 10 -36 28 0 23 16 37 35 29 6 -2 18 -7 28
-10z m-1283 2 c0 -2 -8 -10 -17 -17 -16 -13 -17 -12 -4 4 13 16 21 21 21 13z
m1190 -27 c0 -5 -4 -9 -10 -9 -5 0 -10 7 -10 16 0 8 5 12 10 9 6 -3 10 -10 10
-16z m-1273 5 c-3 -3 -12 -4 -19 -1 -8 3 -5 6 6 6 11 1 17 -2 13 -5z m1493 -4
c0 -5 -5 -10 -11 -10 -5 0 -7 5 -4 10 3 6 8 10 11 10 2 0 4 -4 4 -10z m-1530
-14 c0 -16 -24 -38 -33 -30 -8 9 11 44 23 44 6 0 10 -6 10 -14z m310 -16 c0
-5 -5 -10 -11 -10 -5 0 -7 5 -4 10 3 6 8 10 11 10 2 0 4 -4 4 -10z m1213 -9
c17 10 32 -4 22 -21 -11 -17 -92 -12 -99 6 -11 30 -6 34 27 20 22 -9 40 -10
50 -5z m-1046 -13 c-3 -8 -6 -5 -6 6 -1 11 2 17 5 13 3 -3 4 -12 1 -19z m1933
12 c0 -5 -2 -10 -4 -10 -3 0 -8 5 -11 10 -3 6 -1 10 4 10 6 0 11 -4 11 -10z
m-2457 -14 c4 -10 1 -13 -8 -9 -8 3 -12 9 -9 14 7 12 11 11 17 -5z m417 10 c0
-3 -4 -8 -10 -11 -5 -3 -10 -1 -10 4 0 6 5 11 10 11 6 0 10 -2 10 -4z m-90
-16 c0 -5 -5 -10 -11 -10 -5 0 -7 5 -4 10 3 6 8 10 11 10 2 0 4 -4 4 -10z m50
6 c0 -2 -7 -7 -16 -10 -8 -3 -12 -2 -9 4 6 10 25 14 25 6z m1375 -41 c14 -14
25 -30 25 -36 0 -5 11 -15 25 -21 14 -6 25 -17 25 -24 0 -16 57 -64 77 -64 9
0 24 -7 34 -16 10 -9 23 -13 29 -9 9 6 9 10 -1 16 -9 6 -10 9 -2 9 6 0 19 -8
29 -17 10 -10 22 -18 28 -19 33 -3 66 -18 71 -33 2 -9 18 -22 34 -29 38 -17
69 -61 50 -73 -11 -6 -10 -9 4 -15 9 -3 17 -12 17 -20 0 -8 5 -14 10 -14 6 0
10 7 10 16 0 9 6 14 13 12 22 -8 37 -51 30 -93 -3 -22 -2 -37 2 -33 10 10 35
-10 35 -28 0 -8 -7 -14 -16 -14 -9 0 -14 6 -11 13 3 9 -5 13 -29 14 -43 1 -94
24 -94 42 0 8 -6 11 -15 7 -8 -3 -15 -2 -15 2 0 4 -12 8 -27 9 -15 0 -32 8
-38 17 -7 9 -15 13 -18 9 -4 -3 -7 2 -7 11 0 14 -6 17 -25 14 -17 -4 -25 -1
-25 8 0 8 -7 14 -15 14 -8 0 -15 9 -15 19 0 12 -9 21 -25 25 -14 4 -24 10 -22
14 5 15 -43 52 -59 45 -14 -5 -13 -8 7 -19 l24 -13 -27 -1 c-15 0 -39 5 -55
12 -15 6 -35 10 -43 9 -10 -1 -11 1 -4 6 6 4 10 28 9 53 -1 40 -4 45 -25 47
-16 1 -18 0 -7 -3 14 -5 16 -9 7 -20 -14 -16 -24 -8 -52 41 -10 17 -24 29 -33
27 -8 -2 -15 1 -15 6 0 16 13 22 27 11 10 -9 13 -7 13 10 0 11 -6 21 -14 21
-14 0 -26 21 -26 45 0 16 72 26 82 11 5 -7 8 -4 8 7 0 23 4 22 35 -8z m-1411
-10 c-7 -16 -24 -21 -24 -6 0 8 7 13 27 20 1 1 0 -6 -3 -14z m-302 -37 c-12
-13 -22 -17 -22 -11 0 15 31 46 38 38 3 -3 -4 -15 -16 -27z m973 8 c11 -4 32
-14 48 -22 15 -8 32 -12 37 -9 6 3 10 1 10 -5 0 -8 6 -8 20 0 17 9 20 8 20 -9
0 -12 9 -21 25 -25 26 -7 67 -41 59 -49 -3 -2 13 -7 36 -11 29 -4 40 -11 40
-24 0 -13 5 -11 23 10 26 32 57 40 74 18 11 -13 14 -13 22 -1 7 11 13 11 32
-3 13 -9 30 -16 37 -16 7 0 38 -24 68 -52 30 -29 60 -53 67 -53 6 0 13 -12 15
-27 2 -16 8 -28 14 -28 6 0 8 9 5 20 -3 11 -2 20 3 20 11 0 22 -65 15 -93 -7
-27 12 -37 73 -37 17 0 32 -4 32 -9 0 -5 9 -11 21 -14 12 -3 18 -10 15 -15 -3
-5 0 -17 7 -26 15 -21 117 -32 117 -13 0 6 6 1 13 -13 9 -18 20 -24 38 -22 13
2 34 3 47 4 12 0 22 4 22 9 0 14 22 10 42 -8 17 -15 18 -15 18 1 0 9 4 15 9
12 5 -3 7 -25 4 -48 -4 -28 -3 -39 5 -34 6 3 16 -3 22 -14 6 -11 16 -19 23
-17 8 1 11 -8 9 -25 -2 -22 4 -32 27 -46 30 -18 30 -18 10 -36 -20 -17 -21
-17 -14 3 3 10 1 22 -5 26 -15 9 -13 -38 3 -54 10 -10 8 -14 -6 -22 -10 -6
-14 -15 -10 -22 11 -18 11 -48 0 -44 -6 2 -15 12 -21 22 -15 26 -33 45 -42 45
-5 0 -3 -5 4 -12 20 -20 14 -48 -10 -48 -12 0 -18 -3 -14 -7 4 -5 22 -8 39 -8
24 0 33 -5 35 -20 4 -19 4 -19 -15 -2 -26 23 -36 22 -23 -2 7 -13 7 -22 0 -26
-6 -3 -13 1 -16 9 -3 9 -12 16 -20 16 -8 0 -14 10 -14 22 l0 22 -22 -21 c-19
-20 -20 -26 -10 -60 14 -45 9 -53 -12 -21 -8 12 -16 48 -18 78 -3 51 -6 58
-43 87 -45 37 -55 40 -55 17 0 -8 4 -12 10 -9 13 8 70 -44 70 -64 -1 -11 -9
-6 -25 14 -17 21 -32 29 -49 27 -15 -2 -34 7 -54 27 -17 17 -37 31 -45 31 -23
0 -67 40 -67 61 0 11 -4 18 -9 15 -5 -3 -12 1 -15 10 -5 13 -9 14 -21 4 -12
-10 -15 -9 -15 4 0 9 -12 18 -27 22 -16 4 -44 18 -63 31 -19 12 -42 23 -51 23
-8 0 -19 3 -23 7 -12 12 -40 12 -49 0 -5 -8 -7 -5 -5 8 2 16 -2 19 -22 17 -14
-2 -33 -13 -42 -25 -15 -19 -18 -20 -18 -4 0 9 4 17 8 17 4 0 13 14 20 32 10
28 9 33 -11 47 -12 9 -26 14 -32 13 -5 -2 -15 4 -21 13 -15 20 -64 10 -65 -14
0 -9 -5 -2 -10 14 -5 17 -7 36 -4 43 2 6 -2 12 -9 12 -8 0 -19 -13 -25 -30
-13 -40 -24 -38 -16 3 6 25 4 29 -5 20 -7 -6 -19 -9 -27 -6 -12 5 -14 0 -8
-25 4 -21 3 -32 -4 -32 -6 0 -11 5 -11 11 0 7 -9 9 -21 6 -17 -5 -20 -2 -16
14 4 15 2 17 -13 9 -10 -5 -22 -27 -27 -47 -5 -22 -15 -38 -23 -38 -10 0 -17
-17 -23 -55 -12 -85 -27 -85 -20 0 5 54 3 71 -5 66 -7 -4 -11 -24 -10 -44 0
-20 -3 -48 -8 -62 -8 -24 -8 -24 -14 10 -7 38 -10 33 -30 -45 -7 -27 -15 -58
-18 -69 -3 -13 -1 -17 9 -14 7 2 18 20 23 39 l10 34 4 -34 c2 -19 -2 -37 -9
-41 -6 -4 -9 -13 -5 -19 4 -6 -1 -27 -10 -47 -17 -36 -18 -36 -28 -13 -5 13
-10 32 -10 41 -1 26 -20 26 -31 1 -11 -25 -25 -31 -25 -10 0 7 -7 4 -15 -7
-17 -22 -17 -21 -16 64 0 30 -5 67 -11 83 -12 30 -38 37 -38 10 0 -15 -2 -16
-10 -3 -8 12 -10 12 -16 -3 -3 -9 -3 -28 0 -42 7 -29 -9 -33 -40 -10 -13 11
-14 13 -3 9 17 -5 29 20 29 65 0 20 -2 21 -15 11 -8 -7 -15 -20 -16 -29 0 -10
-2 -12 -6 -3 -2 6 -9 10 -14 6 -23 -14 -5 17 31 56 40 43 49 64 30 75 -5 3
-10 1 -10 -4 0 -18 -18 -12 -23 7 -2 10 -9 -1 -16 -28 -21 -77 -19 -75 -41
-55 -24 22 -25 38 -5 55 8 7 12 16 9 21 -3 5 0 18 6 30 6 11 9 28 5 37 -5 15
-9 13 -26 -8 l-21 -25 6 34 c5 30 4 32 -11 20 -14 -12 -16 -12 -11 1 2 8 19
24 36 35 17 11 31 26 32 33 0 14 2 14 -36 3 -29 -8 -31 -7 -31 20 0 16 4 29 9
29 5 0 6 6 1 13 -12 20 -15 97 -2 97 5 0 9 -8 8 -17 -3 -30 1 -43 11 -43 5 0
7 6 4 14 -3 8 3 19 15 26 12 6 21 20 21 30 0 13 7 20 20 20 17 0 19 -3 10 -19
-7 -14 -6 -27 5 -48 l15 -28 1 28 c1 15 2 33 3 40 1 6 12 20 26 30 24 18 24
18 3 12 -14 -4 -23 -2 -23 4 0 6 4 11 9 11 5 0 11 9 14 20 4 15 14 20 39 20
19 0 40 -6 47 -12 11 -11 13 -7 8 18 -3 18 -4 33 -2 35 6 7 89 2 110 -5z
m-605 -6 c0 -17 -33 -47 -60 -54 -23 -6 -24 -6 -5 5 28 18 45 36 45 48 0 6 5
11 10 11 6 0 10 -5 10 -10z m370 -86 c0 -2 -7 -4 -15 -4 -8 0 -15 4 -15 10 0
5 7 7 15 4 8 -4 15 -8 15 -10z m1817 -156 c-3 -8 -6 -5 -6 6 -1 11 2 17 5 13
3 -3 4 -12 1 -19z m-747 -8 c0 -5 -4 -10 -9 -10 -6 0 -13 5 -16 10 -3 6 1 10
9 10 9 0 16 -4 16 -10z m-643 -202 c-3 -8 -6 -5 -6 6 -1 11 2 17 5 13 3 -3 4
-12 1 -19z m30 0 c-3 -8 -6 -5 -6 6 -1 11 2 17 5 13 3 -3 4 -12 1 -19z m124
-11 c-16 -16 -26 0 -10 19 9 11 15 12 17 4 2 -6 -1 -17 -7 -23z m-144 -49 c-3
-7 -5 -2 -5 12 0 14 2 19 5 13 2 -7 2 -19 0 -25z m3 -73 c5 3 4 -9 -2 -27
l-12 -33 -8 40 c-5 21 -5 46 -1 55 5 11 8 8 11 -13 2 -15 7 -25 12 -22z m-49
-93 c-6 -12 -11 -32 -11 -46 0 -14 -4 -26 -10 -26 -5 0 -8 12 -7 28 4 30 26
76 34 69 2 -3 0 -14 -6 -25z m-373 -7 c-3 -3 -9 2 -12 12 -6 14 -5 15 5 6 7
-7 10 -15 7 -18z m416 -22 c-10 -40 -14 -41 -14 -5 0 18 5 32 10 32 6 0 8 -11
4 -27z m-100 11 c11 -4 14 -14 9 -37 -6 -33 -40 -85 -51 -79 -3 2 -9 -5 -13
-15 -4 -10 -6 12 -4 49 4 87 13 100 59 82z m176 -14 c-6 -11 -15 -20 -21 -20
-6 0 -6 7 1 20 6 11 15 20 21 20 6 0 6 -7 -1 -20z m-500 -25 c0 -8 -4 -15 -10
-15 -5 0 -7 7 -4 15 4 8 8 15 10 15 2 0 4 -7 4 -15z m545 0 c-16 -51 -16 -50
-25 -35 -13 20 -12 33 0 25 6 -3 10 1 10 9 0 9 4 16 10 16 5 0 7 -7 5 -15z
m-553 -57 c-8 -8 -9 -4 -5 13 4 13 8 18 11 10 2 -7 -1 -18 -6 -23z m245 10
c-3 -8 -6 -5 -6 6 -1 11 2 17 5 13 3 -3 4 -12 1 -19z m1383 -13 c0 -14 -2 -25
-4 -25 -2 0 -6 11 -8 25 -3 14 -1 25 3 25 5 0 9 -11 9 -25z m-409 -27 c11 -21
11 -22 -4 -9 -10 7 -17 17 -17 22 0 15 9 10 21 -13z m-861 -2 c0 -3 -4 -8 -10
-11 -5 -3 -10 -1 -10 4 0 6 5 11 10 11 6 0 10 -2 10 -4z m987 -60 c14 -15 19
-32 16 -45 -7 -29 -15 -26 -35 15 -29 58 -19 74 19 30z m-127 -21 c0 -8 -4
-15 -10 -15 -5 0 -7 7 -4 15 4 8 8 15 10 15 2 0 4 -7 4 -15z m-89 -56 c-5 -13
-10 -19 -10 -12 -1 15 10 45 15 40 3 -2 0 -15 -5 -28z m269 21 c0 -5 -4 -10
-10 -10 -5 0 -10 5 -10 10 0 6 5 10 10 10 6 0 10 -4 10 -10z m173 -5 c-3 -9
-8 -14 -10 -11 -3 3 -2 9 2 15 9 16 15 13 8 -4z m-299 -47 c6 -4 7 -8 1 -8
-23 0 -38 18 -30 36 8 18 8 18 13 -1 2 -11 9 -23 16 -27z m46 32 c12 -7 12
-12 2 -22 -9 -9 -12 -9 -12 0 0 7 -7 12 -15 12 -8 0 -15 5 -15 10 0 13 20 13
40 0z m-133 -72 c-2 -13 -4 -5 -4 17 -1 22 1 32 4 23 2 -10 2 -28 0 -40z m46
-18 c-7 -28 -13 -25 -13 6 0 14 4 23 9 20 5 -3 7 -15 4 -26z m-74 -29 c-15 -5
-22 6 -14 19 6 9 10 9 16 -1 5 -8 4 -15 -2 -18z m378 -3 c-3 -8 -6 -5 -6 6 -1
11 2 17 5 13 3 -3 4 -12 1 -19z m-19 -39 c-3 -8 -7 -3 -11 10 -4 17 -3 21 5
13 5 -5 8 -16 6 -23z m-31 -31 c-3 -8 -6 -5 -6 6 -1 11 2 17 5 13 3 -3 4 -12
1 -19z m-471 -506 c-4 -3 -14 2 -24 12 -16 18 -16 18 6 6 13 -6 21 -14 18 -18z"/>
<path d="M140 2385 c-9 -11 -10 -19 -3 -26 8 -8 13 -5 18 11 9 28 2 35 -15 15z"/>
<path d="M185 2300 c-3 -5 1 -10 10 -10 9 0 13 5 10 10 -3 6 -8 10 -10 10 -2
0 -7 -4 -10 -10z"/>
<path d="M1610 1821 c0 -6 5 -13 10 -16 6 -3 10 1 10 9 0 9 -4 16 -10 16 -5 0
-10 -4 -10 -9z"/>
<path d="M1180 1660 c0 -5 5 -10 10 -10 6 0 10 5 10 10 0 6 -4 10 -10 10 -5 0
-10 -4 -10 -10z"/>
<path d="M1206 1404 c-11 -8 -16 -14 -10 -14 13 0 39 18 34 24 -3 2 -14 -2
-24 -10z"/>
<path d="M1391 1354 c0 -11 3 -14 6 -6 3 7 2 16 -1 19 -3 4 -6 -2 -5 -13z"/>
<path d="M1430 1345 c0 -8 2 -15 4 -15 2 0 6 7 10 15 3 8 1 15 -4 15 -6 0 -10
-7 -10 -15z"/>
<path d="M1870 1338 c0 -12 3 -18 7 -14 11 10 12 36 2 36 -5 0 -9 -10 -9 -22z"/>
<path d="M1213 1335 c-15 -17 -17 -65 -3 -65 6 0 10 8 11 18 0 9 2 27 5 40 5
26 3 26 -13 7z"/>
<path d="M1365 1320 c-3 -6 1 -7 9 -4 18 7 21 14 7 14 -6 0 -13 -4 -16 -10z"/>
<path d="M1287 1282 c-21 -37 -7 -63 16 -28 19 28 21 42 9 50 -5 3 -16 -7 -25
-22z"/>
<path d="M921 1164 c0 -11 3 -14 6 -6 3 7 2 16 -1 19 -3 4 -6 -2 -5 -13z"/>
<path d="M2290 909 c0 -14 26 -40 33 -32 7 6 -15 43 -25 43 -5 0 -8 -5 -8 -11z"/>
<path d="M1 4768 c-1 -16 4 -28 9 -28 12 0 12 8 0 35 -8 18 -9 17 -9 -7z"/>
<path d="M2008 4743 c7 -3 16 -2 19 1 4 3 -2 6 -13 5 -11 0 -14 -3 -6 -6z"/>
<path d="M2140 4701 c0 -15 49 -22 70 -11 30 16 25 20 -25 20 -25 0 -45 -4
-45 -9z"/>
<path d="M4958 4623 c6 -2 18 -2 25 0 6 3 1 5 -13 5 -14 0 -19 -2 -12 -5z"/>
<path d="M3448 4443 c7 -3 16 -2 19 1 4 3 -2 6 -13 5 -11 0 -14 -3 -6 -6z"/>
<path d="M7 4363 c-4 -3 -7 -31 -6 -62 0 -31 3 -49 6 -41 2 8 11 30 20 48 19
43 5 81 -20 55z"/>
<path d="M2080 4330 c0 -5 7 -10 16 -10 8 0 12 5 9 10 -3 6 -10 10 -16 10 -5
0 -9 -4 -9 -10z"/>
<path d="M2040 4320 c0 -6 7 -13 15 -16 8 -4 13 -10 10 -14 -3 -5 -1 -11 5
-15 16 -10 24 23 10 40 -14 17 -40 20 -40 5z"/>
<path d="M1990 4301 c0 -10 24 -21 43 -21 7 0 3 7 -7 15 -22 17 -36 19 -36 6z"/>
<path d="M1998 4268 c6 -6 18 -8 28 -6 14 3 12 5 -9 10 -19 3 -25 2 -19 -4z"/>
<path d="M2128 4233 c7 -3 16 -2 19 1 4 3 -2 6 -13 5 -11 0 -14 -3 -6 -6z"/>
<path d="M4332 4188 c-7 -7 -12 -23 -12 -37 0 -30 15 -17 24 22 7 30 5 32 -12
15z"/>
<path d="M4926 4037 c3 -10 9 -15 12 -12 3 3 0 11 -7 18 -10 9 -11 8 -5 -6z"/>
<path d="M4888 4019 c-10 -5 -18 -14 -18 -19 0 -17 15 -11 28 10 14 23 13 23
-10 9z"/>
<path d="M4952 3990 c0 -14 2 -19 5 -12 2 6 2 18 0 25 -3 6 -5 1 -5 -13z"/>
<path d="M4835 3989 c-10 -15 3 -25 16 -12 7 7 7 13 1 17 -6 3 -14 1 -17 -5z"/>
<path d="M2570 3970 c-13 -8 -12 -10 3 -10 9 0 17 5 17 10 0 12 -1 12 -20 0z"/>
<path d="M137 3946 c-4 -10 -5 -21 -2 -24 9 -9 17 6 13 25 -3 17 -4 17 -11 -1z"/>
<path d="M4830 3950 c0 -5 5 -10 10 -10 6 0 10 5 10 10 0 6 -4 10 -10 10 -5 0
-10 -4 -10 -10z"/>
<path d="M2843 3805 c0 -8 9 -15 19 -15 17 0 18 2 4 15 -8 8 -16 15 -19 15 -2
0 -4 -7 -4 -15z"/>
<path d="M2880 3746 c0 -8 5 -18 10 -21 6 -3 10 1 10 9 0 8 -4 18 -10 21 -5 3
-10 -1 -10 -9z"/>
<path d="M160 3695 c0 -8 -4 -15 -10 -15 -5 0 -10 -4 -10 -10 0 -5 7 -10 15
-10 9 0 15 9 15 25 0 14 -2 25 -5 25 -3 0 -5 -7 -5 -15z"/>
<path d="M2890 3676 c0 -9 5 -16 10 -16 6 0 10 4 10 9 0 6 -4 13 -10 16 -5 3
-10 -1 -10 -9z"/>
<path d="M3113 3515 c6 -7 15 -11 20 -8 13 8 7 19 -13 20 -16 1 -17 -1 -7 -12z"/>
<path d="M260 3424 c0 -8 5 -12 10 -9 6 3 10 10 10 16 0 5 -4 9 -10 9 -5 0
-10 -7 -10 -16z"/>
<path d="M385 3240 c-3 -5 -1 -10 4 -10 6 0 11 5 11 10 0 6 -2 10 -4 10 -3 0
-8 -4 -11 -10z"/>
<path d="M2530 3209 c0 -5 5 -7 10 -4 6 3 10 8 10 11 0 2 -4 4 -10 4 -5 0 -10
-5 -10 -11z"/>
<path d="M390 3088 l-25 -21 25 6 c14 4 28 7 33 7 4 0 7 7 7 15 0 20 -10 18
-40 -7z"/>
<path d="M1657 3049 c7 -7 15 -10 18 -7 3 3 -2 9 -12 12 -14 6 -15 5 -6 -5z"/>
<path d="M3655 3040 c-3 -6 1 -7 9 -4 18 7 21 14 7 14 -6 0 -13 -4 -16 -10z"/>
<path d="M312 3008 c-14 -14 -16 -28 -3 -28 9 0 24 30 18 36 -2 2 -9 -2 -15
-8z"/>
<path d="M422 3005 c-7 -9 -8 -15 -2 -15 18 0 11 -20 -21 -60 -17 -21 -28 -43
-25 -49 4 -5 -2 -14 -11 -20 -15 -8 -16 -12 -4 -23 10 -9 12 -10 7 0 -5 8 0
12 14 12 16 0 20 4 16 15 -3 9 9 35 26 60 24 33 29 48 21 56 -6 6 -9 18 -6 25
7 18 1 17 -15 -1z"/>
<path d="M3130 2983 c0 -26 1 -26 14 -8 14 20 12 35 -5 35 -5 0 -9 -12 -9 -27z"/>
<path d="M333 2983 c-7 -17 3 -43 16 -43 6 0 8 7 5 15 -4 11 0 15 16 15 12 0
20 5 18 12 -6 16 -49 18 -55 1z"/>
<path d="M1810 2965 c33 -19 49 -19 24 0 -10 8 -26 14 -34 14 -9 0 -4 -6 10
-14z"/>
<path d="M259 2952 c9 -3 7 -9 -4 -22 -10 -11 -15 -24 -13 -31 3 -8 18 1 42
23 l38 36 -37 -1 c-21 -1 -32 -3 -26 -5z"/>
<path d="M460 2949 c0 -5 5 -7 10 -4 6 3 10 8 10 11 0 2 -4 4 -10 4 -5 0 -10
-5 -10 -11z"/>
<path d="M455 2899 c-4 -6 -5 -13 -2 -16 7 -7 27 6 27 18 0 12 -17 12 -25 -2z"/>
<path d="M546 2845 c-16 -12 -17 -15 -4 -15 9 0 18 7 22 15 7 18 6 18 -18 0z"/>
<path d="M340 2798 c0 -19 2 -20 10 -8 13 19 13 30 0 30 -5 0 -10 -10 -10 -22z"/>
<path d="M502 2808 c-7 -7 -12 -16 -12 -20 0 -15 15 -8 28 12 13 22 3 27 -16
8z"/>
<path d="M600 2780 c-9 -6 -10 -10 -3 -10 6 0 15 5 18 10 8 12 4 12 -15 0z"/>
<path d="M466 2745 c-18 -27 -22 -49 -5 -25 8 11 12 12 16 3 8 -22 28 -14 46
17 21 36 13 39 -21 8 l-24 -23 6 23 c9 29 2 28 -18 -3z"/>
<path d="M2075 2740 c-3 -5 -1 -10 4 -10 6 0 11 5 11 10 0 6 -2 10 -4 10 -3 0
-8 -4 -11 -10z"/>
<path d="M620 2700 c-8 -15 -8 -20 2 -20 22 0 41 17 34 29 -11 17 -24 13 -36
-9z"/>
<path d="M710 2670 c-9 -6 -10 -10 -3 -10 6 0 15 5 18 10 8 12 4 12 -15 0z"/>
<path d="M627 2545 l-18 -25 26 12 c14 6 25 17 25 25 0 20 -13 15 -33 -12z"/>
<path d="M1253 2485 c5 -14 50 -12 54 2 3 8 -6 12 -26 10 -17 -1 -29 -6 -28
-12z"/>
<path d="M1651 2473 c-17 -12 -20 -18 -10 -24 8 -5 18 0 27 12 19 27 11 32
-17 12z"/>
<path d="M685 2457 c-4 -10 -19 -24 -34 -32 -14 -8 -19 -14 -11 -14 22 0 63
36 57 51 -3 9 -7 7 -12 -5z"/>
<path d="M795 2420 c-3 -5 1 -10 9 -10 9 0 16 5 16 10 0 6 -4 10 -9 10 -6 0
-13 -4 -16 -10z"/>
<path d="M772 2348 c-15 -15 -16 -31 0 -26 6 2 12 12 14 21 3 20 2 21 -14 5z"/>
<path d="M626 2231 c-22 -10 -34 -21 -28 -25 12 -7 66 17 77 34 9 14 -5 12
-49 -9z"/>
<path d="M825 2209 c-4 -6 -5 -13 -2 -16 7 -7 27 6 27 18 0 12 -17 12 -25 -2z"/>
<path d="M716 2163 c-6 -14 -5 -15 5 -6 7 7 10 15 7 18 -3 3 -9 -2 -12 -12z"/>
<path d="M710 2101 c0 -6 4 -13 10 -16 6 -3 7 1 4 9 -7 18 -14 21 -14 7z"/>
<path d="M625 2070 c-3 -5 -1 -10 4 -10 6 0 11 5 11 10 0 6 -2 10 -4 10 -3 0
-8 -4 -11 -10z"/>
<path d="M687 2073 c-4 -3 -7 -11 -7 -17 0 -6 5 -5 12 2 6 6 9 14 7 17 -3 3
-9 2 -12 -2z"/>
<path d="M647 2043 c-4 -3 -7 -13 -7 -22 1 -13 3 -13 11 2 11 19 8 33 -4 20z"/>
<path d="M2810 1524 c0 -8 5 -12 10 -9 6 3 10 10 10 16 0 5 -4 9 -10 9 -5 0
-10 -7 -10 -16z"/>
<path d="M2867 1274 c-4 -4 -7 -14 -7 -23 0 -11 3 -12 11 -4 6 6 10 16 7 23
-2 6 -7 8 -11 4z"/>
<path d="M3110 1261 c0 -11 17 -32 37 -48 21 -15 44 -35 53 -43 9 -9 34 -29
55 -45 22 -17 56 -45 75 -62 37 -34 50 -40 50 -22 0 5 5 7 11 3 8 -5 8 -8 0
-13 -7 -5 4 -22 31 -47 56 -51 160 -139 223 -189 28 -22 53 -45 58 -51 4 -7
21 -12 38 -12 24 1 27 3 15 10 -9 5 -21 6 -26 3 -6 -3 -10 -2 -10 4 0 5 6 12
13 15 6 3 2 3 -9 1 -16 -4 -23 0 -27 15 -3 11 -9 19 -14 18 -12 -3 -53 21 -53
32 0 5 8 7 18 4 14 -5 15 -4 2 5 -8 6 -23 8 -32 5 -13 -4 -15 0 -11 17 5 18 3
20 -18 15 -13 -3 -18 -3 -11 0 6 3 9 10 6 16 -4 6 -10 5 -15 -3 -7 -11 -11
-11 -21 -1 -10 10 -10 15 -1 20 8 5 4 14 -12 28 -15 14 -26 18 -28 10 -3 -7
-14 -2 -28 13 l-24 23 25 -12 25 -13 -25 25 c-16 15 -29 21 -37 16 -7 -6 -14
-4 -19 3 -4 8 -3 9 4 5 21 -13 13 10 -11 32 -13 12 -33 22 -44 22 -21 0 -47
22 -38 32 3 3 -4 13 -15 23 -11 10 -20 13 -20 7 0 -7 -5 -12 -11 -12 -6 0 -9
6 -6 14 7 16 -33 55 -49 49 -7 -2 -11 4 -10 14 0 11 -5 18 -16 17 -10 -1 -15
3 -12 8 4 6 -2 8 -15 3 -12 -4 -21 -2 -21 4 0 6 6 11 13 11 12 0 -42 49 -55
50 -5 0 -8 -9 -8 -19z m160 -123 c0 -6 -6 -5 -15 2 -8 7 -15 14 -15 16 0 2 7
1 15 -2 8 -4 15 -11 15 -16z m255 -207 c3 -5 1 -12 -5 -16 -5 -3 -10 1 -10 9
0 18 6 21 15 7z"/>
<path d="M3345 1080 c3 -5 8 -10 11 -10 2 0 4 5 4 10 0 6 -5 10 -11 10 -5 0
-7 -4 -4 -10z"/>
<path d="M3755 703 c22 -15 32 -16 39 -4 3 5 -8 11 -26 13 -28 5 -29 4 -13 -9z"/>
<path d="M3790 676 c0 -1 14 -15 31 -32 27 -25 30 -26 20 -6 -7 12 -10 26 -7
31 3 5 -6 9 -19 9 -14 0 -25 -1 -25 -2z"/>
<path d="M2627 663 c-12 -11 -8 -40 8 -53 13 -11 15 -7 15 24 0 34 -8 44 -23
29z"/>
<path d="M2681 650 c-1 -8 -4 -25 -7 -37 -5 -18 1 -25 35 -42 50 -26 61 -27
33 -2 -12 10 -18 21 -14 25 4 5 -2 6 -13 4 -16 -2 -21 4 -26 32 -4 19 -7 28
-8 20z"/>
<path d="M3872 624 c-11 -12 -8 -19 20 -42 17 -15 59 -51 93 -79 33 -29 66
-53 73 -53 8 0 10 -5 6 -12 -4 -7 -4 -10 0 -6 4 3 26 -14 49 -39 51 -55 73
-68 81 -47 5 12 1 14 -16 8 -17 -5 -20 -3 -15 10 4 10 3 15 -2 12 -11 -7 -48
37 -43 52 2 7 -2 10 -11 6 -10 -3 -22 4 -32 20 -10 14 -21 23 -26 20 -5 -3 -6
2 -2 12 5 13 2 15 -17 9 -18 -6 -22 -4 -17 8 8 21 -3 29 -21 14 -9 -6 -13 -7
-10 -2 4 6 -9 21 -28 34 -26 18 -33 29 -29 45 3 12 2 15 -1 9 -3 -7 -10 -13
-15 -13 -6 0 -8 4 -5 9 3 4 0 15 -7 24 -10 14 -14 14 -25 1z"/>
<path d="M3410 606 c0 -2 7 -7 16 -10 8 -3 12 -2 9 4 -6 10 -25 14 -25 6z"/>
<path d="M3940 580 c0 -5 5 -10 11 -10 5 0 7 5 4 10 -3 6 -8 10 -11 10 -2 0
-4 -4 -4 -10z"/>
<path d="M2775 530 c3 -5 11 -10 16 -10 6 0 7 5 4 10 -3 6 -11 10 -16 10 -6 0
-7 -4 -4 -10z"/>
<path d="M2810 516 c0 -2 8 -10 18 -17 15 -13 16 -12 3 4 -13 16 -21 21 -21
13z"/>
</g>
</svg>
